<?xml version="1.0" encoding="UTF-8" standalone="no"?>
<svg width="500px" height="500px" viewBox="0 0 500 500" version="1.1" xmlns="http://www.w3.org/2000/svg" xmlns:xlink="http://www.w3.org/1999/xlink">
    <!-- Generator: Sketch 42 (36781) - http://www.bohemiancoding.com/sketch -->
    <title>lazy-placeholder</title>
    <desc>Created with Sketch.</desc>
    <defs></defs>
    <g id="Page-1" stroke="none" stroke-width="1" fill="none" fill-rule="evenodd">
        <g id="lazy-placeholder">
            <rect id="bg" fill="#000A13" x="0" y="0" width="500" height="500"></rect>
            <path d="M327.090251,229.869281 C328.333642,200.283224 337.348228,183.202615 337.348228,183.202615 C310.615319,126.775599 250.310848,110 250.310848,110 C250.310848,110 190.006377,126.775599 163.273467,183.202615 C163.273467,183.202615 172.288053,200.283224 173.531444,229.869281 C174.774836,259.455338 174.463988,271.350763 148.352774,293.921569 C148.352774,293.921569 192.182312,365.90414 231.970828,390 L231.970828,346.993464 C231.970828,346.993464 204.305375,312.527233 215.806743,248.169935 C215.806743,248.169935 188.762986,229.869281 196.534181,199.978214 C196.534181,199.978214 213.941657,213.093682 223.888786,219.803922 C223.888786,219.803922 239.431175,227.734205 239.742023,242.984749 C240.052871,258.235294 238.498632,274.705882 233.525067,278.061002 L250,294.836602 L266.474933,278.061002 C261.501368,274.400871 259.636281,258.235294 260.257977,242.984749 C260.879672,227.734205 276.111214,219.803922 276.111214,219.803922 C286.058343,213.398693 303.465819,199.978214 303.465819,199.978214 C311.237014,229.869281 284.193256,248.169935 284.193256,248.169935 C295.694625,312.527233 268.029172,346.993464 268.029172,346.993464 L268.029172,390 C307.817688,365.90414 351.647226,293.921569 351.647226,293.921569 C326.157708,271.350763 325.84686,259.760349 327.090251,229.869281 L327.090251,229.869281 Z" id="mask" fill="#1D282C"></path>
        </g>
    </g>
</svg>